<?xml version="1.0" encoding="UTF-8" standalone="no"?>
<svg
   version="1.1"
   width="1024"
   height="500"
   viewBox="0 0 1024 500"
   id="svg2"
   inkscape:version="1.1 (c4e8f9ed74, 2021-05-24)"
   sodipodi:docname="feature_graphic.svg"
   inkscape:export-filename="/home/matthew/Documents/Development/Stereo Viewer/images/feature_graphic.png"
   inkscape:export-xdpi="96"
   inkscape:export-ydpi="96"
   xmlns:inkscape="http://www.inkscape.org/namespaces/inkscape"
   xmlns:sodipodi="http://sodipodi.sourceforge.net/DTD/sodipodi-0.dtd"
   xmlns="http://www.w3.org/2000/svg"
   xmlns:svg="http://www.w3.org/2000/svg"
   xmlns:rdf="http://www.w3.org/1999/02/22-rdf-syntax-ns#"
   xmlns:cc="http://creativecommons.org/ns#"
   xmlns:dc="http://purl.org/dc/elements/1.1/">
  <metadata
     id="metadata10">
    <rdf:RDF>
      <cc:Work
         rdf:about="">
        <dc:format>image/svg+xml</dc:format>
        <dc:type
           rdf:resource="http://purl.org/dc/dcmitype/StillImage" />
        <cc:license
           rdf:resource="https://www.gnu.org/licenses/gpl-3.0.en.html" />
      </cc:Work>
    </rdf:RDF>
  </metadata>
  <defs
     id="defs8">
    <filter
       style="color-interpolation-filters:sRGB;"
       inkscape:label="Drop Shadow"
       id="filter1619"
       x="-0.0037280298"
       y="-0.0097461034"
       width="1.0083881"
       height="1.0227409">
      <feFlood
         flood-opacity="0.2"
         flood-color="rgb(0,0,0)"
         result="flood"
         id="feFlood1609" />
      <feComposite
         in="flood"
         in2="SourceGraphic"
         operator="in"
         result="composite1"
         id="feComposite1611" />
      <feGaussianBlur
         in="composite1"
         stdDeviation="0.5"
         result="blur"
         id="feGaussianBlur1613" />
      <feOffset
         dx="0.3"
         dy="0.4"
         result="offset"
         id="feOffset1615" />
      <feComposite
         in="SourceGraphic"
         in2="offset"
         operator="over"
         result="composite2"
         id="feComposite1617" />
    </filter>
    <filter
       style="color-interpolation-filters:sRGB;"
       inkscape:label="Drop Shadow"
       id="filter2189"
       x="-0.0037280297"
       y="-0.0097461003"
       width="1.0074561"
       height="1.027614">
      <feFlood
         flood-opacity="0.2"
         flood-color="rgb(0,0,0)"
         result="flood"
         id="feFlood2179" />
      <feComposite
         in="flood"
         in2="SourceGraphic"
         operator="in"
         result="composite1"
         id="feComposite2181" />
      <feGaussianBlur
         in="composite1"
         stdDeviation="0.5"
         result="blur"
         id="feGaussianBlur2183" />
      <feOffset
         dx="2.77556e-17"
         dy="1"
         result="offset"
         id="feOffset2185" />
      <feComposite
         in="SourceGraphic"
         in2="offset"
         operator="over"
         result="composite2"
         id="feComposite2187" />
    </filter>
    <filter
       style="color-interpolation-filters:sRGB;"
       inkscape:label="Drop Shadow"
       id="filter16535"
       x="-0.0026630921"
       y="-0.021482046"
       width="1.0053262"
       height="1.0966692">
      <feFlood
         flood-opacity="0.2"
         flood-color="rgb(0,0,0)"
         result="flood"
         id="feFlood16525" />
      <feComposite
         in="flood"
         in2="SourceGraphic"
         operator="in"
         result="composite1"
         id="feComposite16527" />
      <feGaussianBlur
         in="composite1"
         stdDeviation="0.5"
         result="blur"
         id="feGaussianBlur16529" />
      <feOffset
         dx="2.77556e-17"
         dy="3"
         result="offset"
         id="feOffset16531" />
      <feComposite
         in="SourceGraphic"
         in2="offset"
         operator="over"
         result="composite2"
         id="feComposite16533" />
    </filter>
  </defs>
  <sodipodi:namedview
     pagecolor="#ffffff"
     bordercolor="#666666"
     borderopacity="1"
     objecttolerance="10"
     gridtolerance="10"
     guidetolerance="10"
     inkscape:pageopacity="0"
     inkscape:pageshadow="2"
     inkscape:window-width="1280"
     inkscape:window-height="949"
     id="namedview6"
     showgrid="false"
     inkscape:zoom="0.61458333"
     inkscape:cx="429.55933"
     inkscape:cy="496.27119"
     inkscape:window-x="1280"
     inkscape:window-y="0"
     inkscape:window-maximized="1"
     inkscape:current-layer="layer2"
     inkscape:snap-intersection-paths="true"
     inkscape:object-paths="true"
     inkscape:snap-nodes="false"
     showguides="true"
     inkscape:guide-bbox="true"
     inkscape:object-nodes="true"
     inkscape:snap-smooth-nodes="true"
     inkscape:snap-midpoints="true"
     inkscape:snap-bbox="false"
     inkscape:bbox-paths="true"
     inkscape:bbox-nodes="true"
     inkscape:snap-bbox-edge-midpoints="true"
     inkscape:snap-bbox-midpoints="true"
     inkscape:snap-object-midpoints="true"
     inkscape:snap-center="true"
     inkscape:snap-text-baseline="true"
     inkscape:pagecheckerboard="1" />
  <g
     inkscape:groupmode="layer"
     id="layer2"
     inkscape:label="Background"
     style="display:inline">
    <rect
       style="opacity:1;fill:#4caf50;fill-opacity:1;stroke:none;stroke-width:1.47089"
       id="rect1733"
       width="1024"
       height="500"
       x="0"
       y="0" />
  </g>
  <g
     inkscape:groupmode="layer"
     id="layer1"
     inkscape:label="Foreground"
     style="display:inline">
    <path
       d="m 388.7507,217.61016 c -3.28336,0 -6.15631,1.23126 -8.0716,3.42017 -1.9153,2.05212 -2.73614,5.06185 -2.32572,8.34522 l 6.84034,40.90526 c 1.09446,8.89246 9.02925,15.73278 17.23766,15.73278 h 41.04204 c 8.75564,0 18.60574,-7.66116 20.52103,-16.1432 L 478.49597,226.229 c 0.54723,-1.77849 0.1368,-4.37782 -0.82084,-6.0195 -1.50488,-1.64169 -3.83059,-2.59934 -6.84034,-2.59934 H 388.7507 m 54.72272,95.76481 h -41.04204 c -22.16271,0 -41.58928,-17.23766 -44.32541,-39.12676 l -6.84035,-40.90526 c -1.50487,-11.62859 1.77849,-22.57312 8.89245,-30.50792 7.11395,-7.9348 17.51127,-12.58623 28.59263,-12.58623 h 82.08409 c 11.35496,0 21.61548,4.78825 28.18221,13.13347 1.50487,2.0521 2.87294,4.241 3.96739,6.70352 5.8827,-1.23126 11.9022,-1.23126 17.6481,0 1.09443,-2.46252 2.46251,-4.65142 4.1042,-6.70352 6.42991,-8.34522 16.69041,-13.13347 28.1822,-13.13347 h 82.08409 c 11.08135,0 21.47867,4.65143 28.59262,12.58623 6.97717,7.9348 10.26051,18.87933 8.89245,29.9607 l -6.97714,41.9997 c -2.59932,21.34188 -22.16272,38.57954 -44.18862,38.57954 h -41.04204 c -21.34186,0 -42.13648,-16.28001 -47.33516,-36.93784 l -12.3126,-37.07467 c -5.19868,-3.83059 -12.44944,-3.83059 -17.6481,0 l -12.58622,38.0323 c -4.92505,19.837 -25.58288,35.98021 -46.92475,35.98021 m 109.44547,-95.76481 c -3.00974,0 -5.33548,0.95765 -6.84034,2.59934 -1.09444,1.64168 -1.36808,4.24101 -0.68403,6.97714 l 13.81749,41.72611 c 2.46252,9.43968 12.3126,17.10084 21.06824,17.10084 h 41.04204 c 8.07161,0 16.14323,-6.84032 17.10084,-15.18553 l 6.97719,-41.99973 c 0.41041,-2.73615 -0.41045,-5.74589 -2.32574,-7.798 -1.9153,-2.18891 -4.78822,-3.42017 -8.0716,-3.42017 z"
       id="path4147"
       inkscape:connector-curvature="0"
       style="fill:#cfcfcf;fill-opacity:1;stroke-width:2.11505;filter:url(#filter2189)"
       transform="matrix(1.4044745,0,0,1.4044745,-207.09093,-101.11862)" />
    <path
       d="m 388.75068,212.98639 c -3.28336,0 -6.1563,1.23125 -8.0716,3.42016 -1.9153,2.05212 -2.73614,5.06185 -2.32572,8.34522 l 6.84035,40.90523 c 1.09445,8.89245 9.02925,15.73278 17.23765,15.73278 h 41.04205 c 8.75564,0 18.60573,-7.66116 20.52102,-16.1432 l 14.50153,-43.64136 c 0.54722,-1.77849 0.13682,-4.37782 -0.82084,-6.0195 -1.50488,-1.64169 -3.8306,-2.59933 -6.84035,-2.59933 h -82.08409 m 54.72273,95.76476 h -41.04205 c -22.1627,0 -41.58927,-17.23766 -44.32541,-39.12676 l -6.84034,-40.90522 c -1.50487,-11.62859 1.77849,-22.57312 8.89245,-30.50792 7.11395,-7.9348 17.51127,-12.58623 28.59262,-12.58623 h 82.08409 c 11.35497,0 21.61548,4.78825 28.18221,13.13347 1.50487,2.05209 2.87294,4.24101 3.9674,6.70353 5.88269,-1.23127 11.90219,-1.23127 17.64808,0 1.09445,-2.46252 2.46252,-4.65144 4.10421,-6.70353 6.42993,-8.34522 16.69042,-13.13347 28.1822,-13.13347 h 82.08409 c 11.08136,0 21.47867,4.65143 28.59263,12.58623 6.97715,7.9348 10.26051,18.87933 8.89244,29.9607 l -6.97713,41.99969 c -2.59934,21.34185 -22.16272,38.57951 -44.18862,38.57951 h -41.04205 c -21.34185,0 -42.13648,-16.28001 -47.33516,-36.93784 l -12.31261,-37.07464 c -5.19866,-3.83059 -12.44942,-3.83059 -17.64808,0 l -12.58623,38.03229 c -4.92505,19.837 -25.58288,35.98019 -46.92474,35.98019 m 109.44546,-95.76476 c -3.00974,0 -5.33547,0.95764 -6.84035,2.59933 -1.09443,1.64168 -1.36807,4.24101 -0.68402,6.97714 l 13.8175,41.72607 c 2.46251,9.43969 12.31261,17.10085 21.06823,17.10085 h 41.04205 c 8.0716,0 16.14322,-6.84033 17.10085,-15.18553 l 6.97716,-41.9997 c 0.41043,-2.73615 -0.41042,-5.74589 -2.32573,-7.798 -1.91529,-2.18891 -4.78824,-3.42016 -8.0716,-3.42016 z"
       id="path4"
       inkscape:connector-curvature="0"
       style="fill:#fafafa;fill-opacity:1;stroke-width:1.8289;filter:url(#filter1619)"
       transform="matrix(1.4044745,0,0,1.4044745,-207.09093,-101.11862)" />
  </g>
</svg>
