<?xml version="1.0" encoding="UTF-8" standalone="no"?>
<svg
   version="1.1"
   width="108"
   height="108"
   viewBox="0 0 108 108"
   id="svg2"
   inkscape:version="1.1 (c4e8f9ed74, 2021-05-24)"
   sodipodi:docname="icon.svg"
   inkscape:export-filename="/home/matthew/Documents/Development/Stereo Viewer/source images/ic_launcher.png"
   inkscape:export-xdpi="468.75"
   inkscape:export-ydpi="468.75"
   xmlns:inkscape="http://www.inkscape.org/namespaces/inkscape"
   xmlns:sodipodi="http://sodipodi.sourceforge.net/DTD/sodipodi-0.dtd"
   xmlns="http://www.w3.org/2000/svg"
   xmlns:svg="http://www.w3.org/2000/svg"
   xmlns:rdf="http://www.w3.org/1999/02/22-rdf-syntax-ns#"
   xmlns:cc="http://creativecommons.org/ns#"
   xmlns:dc="http://purl.org/dc/elements/1.1/">
  <metadata
     id="metadata10">
    <rdf:RDF>
      <cc:Work
         rdf:about="">
        <dc:format>image/svg+xml</dc:format>
        <dc:type
           rdf:resource="http://purl.org/dc/dcmitype/StillImage" />
        <cc:license
           rdf:resource="https://www.gnu.org/licenses/gpl-3.0.en.html" />
      </cc:Work>
    </rdf:RDF>
  </metadata>
  <defs
     id="defs8" />
  <sodipodi:namedview
     pagecolor="#ffffff"
     bordercolor="#666666"
     borderopacity="1"
     objecttolerance="10"
     gridtolerance="10"
     guidetolerance="10"
     inkscape:pageopacity="0"
     inkscape:pageshadow="2"
     inkscape:window-width="1280"
     inkscape:window-height="995"
     id="namedview6"
     showgrid="false"
     inkscape:zoom="4.9166666"
     inkscape:cx="34.067797"
     inkscape:cy="57.762713"
     inkscape:window-x="0"
     inkscape:window-y="0"
     inkscape:window-maximized="1"
     inkscape:current-layer="layer2"
     inkscape:snap-intersection-paths="true"
     inkscape:object-paths="true"
     inkscape:snap-nodes="false"
     showguides="true"
     inkscape:guide-bbox="true"
     inkscape:object-nodes="true"
     inkscape:snap-smooth-nodes="true"
     inkscape:snap-midpoints="true"
     inkscape:snap-bbox="false"
     inkscape:bbox-paths="true"
     inkscape:bbox-nodes="true"
     inkscape:snap-bbox-edge-midpoints="true"
     inkscape:snap-bbox-midpoints="true"
     inkscape:snap-object-midpoints="true"
     inkscape:snap-center="true"
     inkscape:snap-text-baseline="true"
     inkscape:pagecheckerboard="1" />
  <g
     inkscape:groupmode="layer"
     id="layer2"
     inkscape:label="Background"
     style="display:inline">
    <rect
       style="opacity:1;fill:#4caf50;fill-opacity:1;stroke:none;stroke-width:0.222008"
       id="rect1733"
       width="108"
       height="108"
       x="0"
       y="0" />
  </g>
  <g
     inkscape:groupmode="layer"
     id="layer1"
     inkscape:label="Foreground"
     style="display:inline">
    <path
       style="opacity:0.1;fill:none;fill-opacity:1;stroke:#000000;stroke-width:1;stroke-miterlimit:4;stroke-dasharray:none;stroke-opacity:1"
       inkscape:connector-curvature="0"
       id="path7317"
       d="m 27.373919,46.811196 c -0.710183,0 -1.331595,0.266316 -1.745867,0.739773 -0.414275,0.443868 -0.59182,1.094866 -0.503048,1.805049 l 1.47955,8.847697 c 0.236728,1.923416 1.953004,3.402961 3.728463,3.402961 h 8.877293 c 1.893823,0 4.024374,-1.657088 4.438647,-3.491736 l 3.136644,-9.439513 c 0.118363,-0.384683 0.02959,-0.946912 -0.177547,-1.302002 -0.3255,-0.355093 -0.828546,-0.562229 -1.479548,-0.562229 H 27.373919 M 39.21031,67.524874 h -8.877293 c -4.793739,0 -8.995657,-3.728463 -9.587477,-8.463021 L 19.265991,50.214158 C 18.94049,47.698923 19.650673,45.331646 21.189404,43.61537 22.728135,41.899092 24.977049,40.893 27.373919,40.893 h 17.754587 c 2.456051,0 4.675375,1.035685 6.095742,2.840735 0.3255,0.443864 0.62141,0.91732 0.858138,1.449957 1.272412,-0.26632 2.574415,-0.26632 3.817239,0 0.236723,-0.532637 0.532636,-1.006093 0.887729,-1.449957 1.390774,-1.80505 3.610094,-2.840735 6.095741,-2.840735 h 17.754586 c 2.396868,0 4.645783,1.006092 6.184513,2.72237 1.509144,1.716276 2.219324,4.083553 1.923416,6.480426 l -1.509139,9.084422 c -0.562227,4.616193 -4.793742,8.344656 -9.557889,8.344656 h -8.877293 c -4.616192,0 -9.114016,-3.521325 -10.238477,-7.989564 l -2.663187,-8.01915 c -1.124461,-0.828546 -2.692782,-0.828546 -3.817239,0 l -2.72237,8.226284 c -1.065275,4.290695 -5.533513,7.78243 -10.149706,7.78243 M 62.883095,46.811196 c -0.651,0 -1.154051,0.207136 -1.479549,0.562229 -0.236724,0.35509 -0.295913,0.917319 -0.147954,1.509137 l 2.98869,9.025245 c 0.532636,2.041781 2.663185,3.698869 4.557007,3.698869 h 8.877293 c 1.745868,0 3.491741,-1.479545 3.69887,-3.284592 l 1.509149,-9.084427 c 0.08877,-0.591822 -0.08878,-1.242821 -0.503052,-1.686689 -0.414276,-0.473456 -1.035682,-0.739773 -1.745868,-0.739773 H 62.883095 Z" />
    <path
       style="fill:none;fill-opacity:1;stroke-width:1;stroke:#000000;stroke-opacity:1;opacity:0.1;stroke-miterlimit:4;stroke-dasharray:none"
       inkscape:connector-curvature="0"
       id="path4145"
       d="m 27.373919,45.811196 c -0.710183,0 -1.331595,0.266316 -1.745867,0.739773 -0.414275,0.443868 -0.59182,1.094866 -0.503048,1.805049 l 1.47955,8.847697 c 0.236728,1.923416 1.953004,3.402961 3.728463,3.402961 h 8.877293 c 1.893823,0 4.024374,-1.657088 4.438647,-3.491736 l 3.136644,-9.439513 c 0.118363,-0.384683 0.02959,-0.946912 -0.177547,-1.302002 -0.3255,-0.355093 -0.828546,-0.562229 -1.479548,-0.562229 H 27.373919 M 39.21031,66.524874 h -8.877293 c -4.793739,0 -8.995657,-3.728463 -9.587477,-8.463021 L 19.265991,49.214158 C 18.94049,46.698923 19.650673,44.331646 21.189404,42.61537 22.728135,40.899092 24.977049,39.893 27.373919,39.893 h 17.754587 c 2.456051,0 4.675375,1.035685 6.095742,2.840735 0.3255,0.443864 0.62141,0.91732 0.858138,1.449957 1.272412,-0.26632 2.574415,-0.26632 3.817239,0 0.236723,-0.532637 0.532636,-1.006093 0.887729,-1.449957 1.390774,-1.80505 3.610094,-2.840735 6.095741,-2.840735 h 17.754586 c 2.396868,0 4.645783,1.006092 6.184513,2.72237 1.509144,1.716276 2.219324,4.083553 1.923416,6.480426 l -1.509139,9.084422 c -0.562227,4.616193 -4.793742,8.344656 -9.557889,8.344656 h -8.877293 c -4.616192,0 -9.114016,-3.521325 -10.238477,-7.989564 l -2.663187,-8.01915 c -1.124461,-0.828546 -2.692782,-0.828546 -3.817239,0 l -2.72237,8.226284 c -1.065275,4.290695 -5.533513,7.78243 -10.149706,7.78243 M 62.883095,45.811196 c -0.651,0 -1.154051,0.207136 -1.479549,0.562229 -0.236724,0.35509 -0.295913,0.917319 -0.147954,1.509137 l 2.98869,9.025245 c 0.532636,2.041781 2.663185,3.698869 4.557007,3.698869 h 8.877293 c 1.745868,0 3.491741,-1.479545 3.69887,-3.284592 l 1.509149,-9.084427 c 0.08877,-0.591822 -0.08878,-1.242821 -0.503052,-1.686689 -0.414276,-0.473456 -1.035682,-0.739773 -1.745868,-0.739773 H 62.883095 Z" />
    <path
       d="m 27.373919,46.811196 c -0.710183,0 -1.331595,0.266318 -1.745867,0.739774 -0.414275,0.443867 -0.59182,1.094865 -0.503048,1.80505 l 1.47955,8.847707 c 0.236728,1.923416 1.953004,3.402961 3.728463,3.402961 h 8.877293 c 1.893823,0 4.024374,-1.657089 4.438647,-3.491735 l 3.136644,-9.439525 c 0.118363,-0.384682 0.02959,-0.946911 -0.177547,-1.302002 -0.3255,-0.355094 -0.828546,-0.56223 -1.479548,-0.56223 H 27.373919 M 39.21031,67.524887 h -8.877293 c -4.793739,0 -8.995657,-3.728464 -9.587477,-8.463021 L 19.265991,50.214159 C 18.94049,47.698924 19.650673,45.331648 21.189404,43.615371 22.728135,41.899093 24.977049,40.893 27.373919,40.893 h 17.754587 c 2.456051,0 4.675375,1.035687 6.095742,2.840738 0.3255,0.443863 0.62141,0.917318 0.858138,1.449955 1.272412,-0.26632 2.574415,-0.26632 3.817239,0 0.236723,-0.532637 0.532636,-1.006092 0.887729,-1.449955 C 58.178128,41.928687 60.397448,40.893 62.883095,40.893 h 17.754586 c 2.396868,0 4.645783,1.006093 6.184513,2.722371 1.509144,1.716277 2.219324,4.083553 1.923416,6.480426 l -1.509139,9.084432 c -0.562227,4.616194 -4.793742,8.344658 -9.557889,8.344658 h -8.877293 c -4.616192,0 -9.114016,-3.521325 -10.238477,-7.989564 l -2.663187,-8.01916 c -1.124461,-0.828547 -2.692782,-0.828547 -3.817239,0 l -2.72237,8.226294 c -1.065275,4.290694 -5.533513,7.78243 -10.149706,7.78243 M 62.883095,46.811196 c -0.651,0 -1.154051,0.207136 -1.479549,0.56223 -0.236724,0.355091 -0.295913,0.91732 -0.147954,1.509138 l 2.98869,9.025255 c 0.532636,2.04178 2.663185,3.698869 4.557007,3.698869 h 8.877293 c 1.745868,0 3.491741,-1.479545 3.69887,-3.284592 l 1.509149,-9.084438 c 0.08877,-0.591823 -0.08878,-1.242822 -0.503052,-1.686688 -0.414276,-0.473456 -1.035682,-0.739774 -1.745868,-0.739774 z"
       id="path4147"
       inkscape:connector-curvature="0"
       style="fill:#cfcfcf;fill-opacity:1;stroke-width:0.457481" />
    <path
       d="m 28.692034,77.299272 c -1.795271,0 -3.366132,0.673221 -4.413372,1.870069 -1.047242,1.12205 -1.496059,2.767708 -1.271651,4.562979 l 3.740147,22.36607 c 0.598423,4.86219 4.936992,8.60233 9.425167,8.60233 h 22.440876 c 4.787387,0 10.173197,-4.18895 11.220438,-8.82674 l 7.929109,-23.862125 c 0.299212,-0.972437 0.07481,-2.393694 -0.448817,-3.291326 -0.822832,-0.89764 -2.094482,-1.421257 -3.740146,-1.421257 H 28.692034 M 58.613201,129.66131 H 36.172325 c -12.118072,0 -22.740086,-9.42517 -24.236145,-21.39364 L 8.1960339,85.901606 c -0.822832,-6.358252 0.9724379,-12.34248 4.8621901,-16.681051 3.889752,-4.33857 9.574773,-6.881869 15.63381,-6.881869 h 44.881751 c 6.208642,0 11.818861,2.618106 15.409401,7.181086 0.822832,1.122041 1.570861,2.318889 2.169284,3.66534 3.216526,-0.673231 6.507855,-0.673231 9.64958,0 0.59842,-1.346451 1.34645,-2.543299 2.24409,-3.66534 3.51574,-4.56298 9.12595,-7.181086 15.4094,-7.181086 h 44.88175 c 6.05904,0 11.74406,2.543299 15.63381,6.881869 3.81495,4.338571 5.61022,10.322799 4.86219,16.381844 l -3.81494,22.964491 c -1.42126,11.66925 -12.11808,21.09442 -24.16135,21.09442 h -22.44088 c -11.66925,0 -23.03929,-8.90155 -25.88181,-20.19679 l -6.73226,-20.271587 c -2.842514,-2.094479 -6.807068,-2.094479 -9.64958,0 l -6.881868,20.795207 c -2.692905,10.84643 -13.988146,19.67317 -25.657401,19.67317 M 118.45554,77.299272 c -1.64566,0 -2.91732,0.523617 -3.74015,1.421257 -0.59841,0.897632 -0.74803,2.318889 -0.37401,3.814943 l 7.5551,22.814888 c 1.34645,5.16141 6.73226,9.35036 11.51964,9.35036 H 155.857 c 4.41337,0 8.82675,-3.74014 9.35036,-8.30311 l 3.81496,-22.964497 c 0.22441,-1.496064 -0.22441,-3.141723 -1.27166,-4.263773 -1.04724,-1.196848 -2.6181,-1.870069 -4.41337,-1.870069 h -44.88175 z"
       id="path4"
       inkscape:connector-curvature="0"
       style="fill:#fafafa;fill-opacity:1"
       transform="matrix(0.39558587,0,0,0.39558587,16.023753,15.232585)" />
  </g>
</svg>
